<svg xmlns="http://www.w3.org/2000/svg" viewBox="0 0 256 256" width="256" height="256">
  <defs>
    <!-- 渐变定义 -->
    <linearGradient id="bg-gradient" x1="0%" y1="0%" x2="100%" y2="100%">
      <stop offset="0%" stop-color="#1E1E2E" />
      <stop offset="100%" stop-color="#0F0F16" />
    </linearGradient>
    <linearGradient id="primary-gradient" x1="0%" y1="0%" x2="100%" y2="100%">
      <stop offset="0%" stop-color="#00F0FF" />
      <stop offset="100%" stop-color="#7000FF" />
    </linearGradient>
    
    <!-- 发光滤镜 -->
    <filter id="glow" x="-20%" y="-20%" width="140%" height="140%">
      <feGaussianBlur stdDeviation="8" result="blur" />
      <feComposite in="SourceGraphic" in2="blur" operator="over" />
    </filter>
    
    <!-- 文字专属轻度发光滤镜 -->
    <filter id="text-glow" x="-20%" y="-20%" width="140%" height="140%">
      <feGaussianBlur stdDeviation="2" result="blur" />
      <feComposite in="SourceGraphic" in2="blur" operator="over" />
    </filter>
  </defs>

  <!-- 背景底板 (圆角矩形，适合Windows应用) -->
  <rect x="16" y="16" width="224" height="224" rx="50" fill="url(#bg-gradient)" stroke="#2A2A3C" stroke-width="4"/>

  <!-- ================= 主体图形 (整体中心上移至 Y=110) ================= -->

  <!-- 左侧输入节点 (代表多个大模型上游) -->
  <circle cx="60" cy="62" r="10" fill="#00F0FF" opacity="0.8"/>
  <circle cx="50" cy="110" r="12" fill="#7000FF" opacity="0.8"/>
  <circle cx="60" cy="158" r="10" fill="#00F0FF" opacity="0.8"/>

  <!-- 连接线 (代表流式转发与故障切换) -->
  <path d="M 70 62 Q 110 62 128 110" fill="none" stroke="#00F0FF" stroke-width="4" stroke-dasharray="4 4" opacity="0.6"/>
  <path d="M 62 110 L 128 110" fill="none" stroke="#7000FF" stroke-width="6" opacity="0.8"/>
  <path d="M 70 158 Q 110 158 128 110" fill="none" stroke="#00F0FF" stroke-width="4" stroke-dasharray="4 4" opacity="0.6"/>

  <!-- 中心核心/切换器 (代表 OC Switch 本身) -->
  <circle cx="128" cy="110" r="32" fill="url(#primary-gradient)" filter="url(#glow)"/>
  <circle cx="128" cy="110" r="24" fill="#1E1E2E"/>
  
  <!-- 中心 Switch 拨动形态 (代表控制台) -->
  <rect x="112" y="100" width="32" height="20" rx="10" fill="#2A2A3C"/>
  <circle cx="132" cy="110" r="6" fill="#00F0FF"/>

  <!-- 右侧单输出 (代表单一稳定的聚合模型别名) -->
  <path d="M 160 110 L 206 110" fill="none" stroke="url(#primary-gradient)" stroke-width="8" stroke-linecap="round" filter="url(#glow)"/>
  <polygon points="196,100 212,110 196,120" fill="#7000FF" filter="url(#glow)"/>

  <!-- ================= 底部文字排版 ================= -->
  <!-- 使用系统无衬线粗体字，现代感强 -->
  <text x="128" y="200" font-family="system-ui, -apple-system, 'Segoe UI', Roboto, sans-serif" font-size="26" font-weight="900" text-anchor="middle" letter-spacing="2">
    <!-- OC 部分青色高亮发光 -->
    <tspan fill="#00F0FF" filter="url(#text-glow)">OC</tspan>
    <!-- SWITCH 部分纯白对比 -->
    <tspan fill="#FFFFFF"> SWITCH</tspan>
  </text>
</svg>